PathFileType	4	(X/Y/Z)	/Users/niels/Desktop/University/Third Semester/Perception and Action/Exam/Gymnastics Motion Tracking/Code for Gym Tracking/Analyzed Data/Webcam_Backflip/id1_2_trajectory_Sports2D/id1_2_trajectory_Sports2D_px_person00.trc
DataRate	CameraRate	NumFrames	NumMarkers	Units	OrigDataRate	OrigDataStartFrame	OrigNumFrames
29.714285714285715	29.714285714285715	7	22	m	29.714285714285715	39	105
Frame#	Time	Hip			RHip			RKnee			RAnkle			RBigToe			RSmallToe			RHeel			LHip			LKnee			LAnkle			LBigToe			LSmallToe			LHeel			Neck			Head			Nose			RShoulder			RElbow			RWrist			LShoulder			LElbow			LWrist		
		X1	Y1	Z1	X2	Y2	Z2	X3	Y3	Z3	X4	Y4	Z4	X5	Y5	Z5	X6	Y6	Z6	X7	Y7	Z7	X8	Y8	Z8	X9	Y9	Z9	X10	Y10	Z10	X11	Y11	Z11	X12	Y12	Z12	X13	Y13	Z13	X14	Y14	Z14	X15	Y15	Z15	X16	Y16	Z16	X17	Y17	Z17	X18	Y18	Z18	X19	Y19	Z19	X20	Y20	Z20	X21	Y21	Z21	X22	Y22	Z22
39	1.3125	0.4643626329675678	-0.601156830450748	0.0	0.44390381452783173	-0.5969845110823558	0.0	0.45368271044967295	-0.7100322459466373	0.0	0.34974522864409296	-0.7743958331275002	0.0	0.36144201355878636	-0.8276907718278708	0.0	0.3478179121750623	-0.8212442582356143	0.0	0.33229177195297854	-0.7737662714708953	0.0	0.4829489186771888	-0.6057049745012327	0.0	0.46898381528719685	-0.720582812103764	0.0	0.417704754358301	-0.829146538389431	0.0	0.44060976226049503	-0.8572959477834423	0.0	0.44112766648567125	-0.8539320613142927	0.0	0.4041398124507258	-0.838573935975344	0.0	0.50712226199468	-0.4442758499686249	0.0	0.561467186719747	-0.3805916856376297	0.0	0.5522352424053929	-0.43022891748834735	0.0	0.4671733533557935	-0.4438802085353084	0.0	0.39851393542597213	-0.4518791216061798	0.0	0.4126220658553525	-0.43066434141749665	0.0	0.5288267796117585	-0.46165416600298587	0.0	0.5406965474815737	-0.48565662778867424	0.0	0.5687439611978329	-0.4972397165061497	0.0
40	1.346153846153846	0.44889398052858426	-0.6114995400372338	0.0	0.4277610305842131	-0.6084083525394859	0.0	0.4340822828628411	-0.7220985009210614	0.0	0.3335843564371019	-0.7893756666281447	0.0	0.3518700816077438	-0.8388186151367568	0.0	0.3371377720519188	-0.8330593821459753	0.0	0.31657017188805653	-0.7901209436048581	0.0	0.46821671071787696	-0.6158739888194715	0.0	0.46602664785754744	-0.7269762376902159	0.0	0.4164034393319843	-0.8373766082492232	0.0	0.4418441207555264	-0.8627769702680158	0.0	0.4428993381269741	-0.8595732027437296	0.0	0.4023582231619103	-0.8468424836922291	0.0	0.49214440100241386	-0.45353138960096023	0.0	0.5446782504019272	-0.3899505050051597	0.0	0.5353764892499454	-0.4391627244446737	0.0	0.45079772280412295	-0.45613743709004206	0.0	0.38245919719730403	-0.4750690147833193	0.0	0.3940511004590741	-0.46888973370255554	0.0	0.5131617376020807	-0.47188311364536034	0.0	0.5212654880226488	-0.5049683580875013	0.0	0.5439826117413851	-0.5255135507408241	0.0
41	1.3798076923076923	0.4342748483173649	-0.6185802247139287	0.0	0.41260199147294374	-0.6168062952555239	0.0	0.41789578274645633	-0.7290812959585792	0.0	0.32279729589035017	-0.8013603356401258	0.0	0.3471537209685217	-0.8461324842327429	0.0	0.331570537024754	-0.8414011479749571	0.0	0.306104467073396	-0.8040442112691254	0.0	0.45430387619759827	-0.6227651827310479	0.0	0.46480524246436256	-0.7293121581470307	0.0	0.4165978293405079	-0.840962340779005	0.0	0.4443904569006368	-0.8648684113059638	0.0	0.44574244144630204	-0.8614158852310453	0.0	0.4020914650918986	-0.8509192439943516	0.0	0.47693084825515725	-0.46016213666391714	0.0	0.5277838717346481	-0.39708942977039036	0.0	0.5183406220165849	-0.44605138960399643	0.0	0.4342930390491473	-0.46600931479040225	0.0	0.36829489484393846	-0.49708432117720497	0.0	0.3790450143883334	-0.5088620105905071	0.0	0.4977646692292773	-0.47984614036957574	0.0	0.5017785040475569	-0.5228677172223789	0.0	0.5195893472884845	-0.5538492066800939	0.0
42	1.4134615384615383	0.4210710646405477	-0.6218413854288359	0.0	0.3990780404948497	-0.6213888144756604	0.0	0.40502336980421133	-0.7311586300637304	0.0	0.31655525113509325	-0.80938756345633	0.0	0.34548137177076355	-0.8493797923118	0.0	0.3294116221330151	-0.8458697163308212	0.0	0.30015384607484474	-0.8143550864525454	0.0	0.4416325989822725	-0.625619893610011	0.0	0.4649800737074385	-0.7266618694590357	0.0	0.41803284012635644	-0.8389708654790682	0.0	0.44790265003499186	-0.862824544551157	0.0	0.4493464977766317	-0.8588941119550682	0.0	0.4031302156045418	-0.8497684205466189	0.0	0.4616552619403034	-0.4634259798973575	0.0	0.5109416120787575	-0.40064759459339644	0.0	0.5014236419747143	-0.44963365369030817	0.0	0.4179472248212824	-0.47252935723783795	0.0	0.3560065441911702	-0.515690815135043	0.0	0.3678981271984457	-0.5454921849369027	0.0	0.4828770800003923	-0.48450212125951314	0.0	0.48261225886653397	-0.5369137270785994	0.0	0.496319898874267	-0.5785819275080674	0.0
43	1.4471153846153846	0.4095892584592828	-0.6213619761297166	0.0	0.3875264282452831	-0.6220562013628883	0.0	0.39496152728491735	-0.7290377706559762	0.0	0.3137327262574206	-0.8133892989511223	0.0	0.34550203663569223	-0.8490815174066795	0.0	0.32926725001070084	-0.846846022708882	0.0	0.2976624697569328	-0.8207034594004484	0.0	0.43041801697459475	-0.6243548895299645	0.0	0.4663520225199848	-0.7187911460650547	0.0	0.4201677993746145	-0.8309556387170113	0.0	0.45155427880810006	-0.8562238142284212	0.0	0.4529481652750139	-0.8517736010940398	0.0	0.40485321759275544	-0.8426547107865677	0.0	0.4466660205700089	-0.4631435082697207	0.0	0.4944634842659544	-0.4000153477033123	0.0	0.4850455586248271	-0.4491965518124768	0.0	0.4023030653640164	-0.475249513125857	0.0	0.34546197123947836	-0.5290367573461504	0.0	0.3601442731620723	-0.5744397902260001	0.0	0.46869199524838545	-0.48532602898726024	0.0	0.4643986373869354	-0.5455367845721246	0.0	0.4750702103348811	-0.5968740601809808	0.0
44	1.4807692307692306	0.39974700701991644	-0.6177351735682562	0.0	0.37777435750922167	-0.6193544397343028	0.0	0.3868980618373401	-0.7238750306611881	0.0	0.31307605137542804	-0.8141194247696883	0.0	0.3464156292740622	-0.8462729744071512	0.0	0.33023252782094437	-0.8452362898783545	0.0	0.2973964239522656	-0.8235167592635165	0.0	0.4206324262170117	-0.6195809419504099	0.0	0.46851346508161884	-0.7063640985150414	0.0	0.4218901775070915	-0.817219303827652	0.0	0.4540763089777952	-0.8451902918544834	0.0	0.45527280765104616	-0.8402524617267678	0.0	0.40605823790548545	-0.8295813948281626	0.0	0.43228967054227674	-0.4596078090981736	0.0	0.4785485706617552	-0.39541674583251163	0.0	0.4695684349522709	-0.4447349842982552	0.0	0.3878083926007769	-0.4742179922153058	0.0	0.33598056711120855	-0.5360414986355406	0.0	0.3547489419795097	-0.5929698897274935	0.0	0.4552875571205836	-0.4823758958355343	0.0	0.44785600497574163	-0.5483094646372928	0.0	0.45665139885216743	-0.6071887869634691	0.0
45	1.5144230769230769	0.39111565193605663	-0.6117193380056124	0.0	0.3692521143979769	-0.6141200680067453	0.0	0.3799544633065379	-0.716983541730411	0.0	0.3134624484924084	-0.8127651290233545	0.0	0.34787163943965504	-0.8420752938540741	0.0	0.33187430720986383	-0.842063277227121	0.0	0.2981784456038949	-0.8237499559930096	0.0	0.41203980950616587	-0.6122930582327375	0.0	0.4706416740095993	-0.6909602058821117	0.0	0.42151671506636956	-0.7988164330367249	0.0	0.45367940344290447	-0.8304072088236711	0.0	0.4545294447157714	-0.8249966340902333	0.0	0.40503081191906465	-0.8113386888172285	0.0	0.41875882110086854	-0.4534202923311618	0.0	0.46323090940498723	-0.38763278570526744	0.0	0.4551540387578726	-0.43689071747668606	0.0	0.37467793751378814	-0.46990025351150966	0.0	0.32662982505180305	-0.5365250224328566	0.0	0.3504232348581787	-0.6003042067750513	0.0	0.4426844955358078	-0.47620533002347243	0.0	0.43356173515808377	-0.5457879507339456	0.0	0.44163501956199863	-0.6094535467274824	0.0
